<svg width="19" height="19" viewBox="0 0 19 19" fill="none" xmlns="http://www.w3.org/2000/svg">
<path d="M5.31348 6.18457V18.5H0.817383V6.18457H5.31348ZM13.7637 5.86523C15.6651 5.86533 16.9063 6.51787 17.6348 7.67285C18.331 8.77681 18.5 10.2559 18.5 11.7842V18.5H13.9521V12.4746C13.9521 11.8119 13.9447 11.1699 13.7598 10.6895C13.6729 10.4639 13.5565 10.3018 13.4033 10.1934C13.2515 10.0859 13.0207 10 12.6514 10C12.2525 10 11.9757 10.0767 11.7803 10.1846C11.588 10.2908 11.4453 10.4437 11.3359 10.6436C11.1039 11.0679 11.0322 11.6846 11.0322 12.4219V18.5H6.53711V6.18457H10.874V6.90039C11.5691 6.30649 12.5503 5.86523 13.7637 5.86523ZM3.06543 0.5C4.47184 0.500005 5.57812 1.69898 5.57812 3.07227C5.57791 4.46238 4.45506 5.59082 3.06543 5.59082C1.63136 5.59082 0.500211 4.47085 0.5 3.07227C0.5 1.69036 1.61442 0.5 3.06543 0.5Z" fill="#B9FF66"/>
<path d="M5.31348 6.18457V18.5H0.817383V6.18457H5.31348ZM13.7637 5.86523C15.6651 5.86533 16.9063 6.51787 17.6348 7.67285C18.331 8.77681 18.5 10.2559 18.5 11.7842V18.5H13.9521V12.4746C13.9521 11.8119 13.9447 11.1699 13.7598 10.6895C13.6729 10.4639 13.5565 10.3018 13.4033 10.1934C13.2515 10.0859 13.0207 10 12.6514 10C12.2525 10 11.9757 10.0767 11.7803 10.1846C11.588 10.2908 11.4453 10.4437 11.3359 10.6436C11.1039 11.0679 11.0322 11.6846 11.0322 12.4219V18.5H6.53711V6.18457H10.874V6.90039C11.5691 6.30649 12.5503 5.86523 13.7637 5.86523ZM3.06543 0.5C4.47184 0.500005 5.57812 1.69898 5.57812 3.07227C5.57791 4.46238 4.45506 5.59082 3.06543 5.59082C1.63136 5.59082 0.500211 4.47085 0.5 3.07227C0.5 1.69036 1.61442 0.5 3.06543 0.5Z" stroke="black"/>
<path d="M5.31348 6.18457V18.5H0.817383V6.18457H5.31348ZM13.7637 5.86523C15.6651 5.86533 16.9063 6.51787 17.6348 7.67285C18.331 8.77681 18.5 10.2559 18.5 11.7842V18.5H13.9521V12.4746C13.9521 11.8119 13.9447 11.1699 13.7598 10.6895C13.6729 10.4639 13.5565 10.3018 13.4033 10.1934C13.2515 10.0859 13.0207 10 12.6514 10C12.2525 10 11.9757 10.0767 11.7803 10.1846C11.588 10.2908 11.4453 10.4437 11.3359 10.6436C11.1039 11.0679 11.0322 11.6846 11.0322 12.4219V18.5H6.53711V6.18457H10.874V6.90039C11.5691 6.30649 12.5503 5.86523 13.7637 5.86523ZM3.06543 0.5C4.47184 0.500005 5.57812 1.69898 5.57812 3.07227C5.57791 4.46238 4.45506 5.59082 3.06543 5.59082C1.63136 5.59082 0.500211 4.47085 0.5 3.07227C0.5 1.69036 1.61442 0.5 3.06543 0.5Z" stroke="black" stroke-opacity="0.2"/>
<path d="M5.31348 6.18457V18.5H0.817383V6.18457H5.31348ZM13.7637 5.86523C15.6651 5.86533 16.9063 6.51787 17.6348 7.67285C18.331 8.77681 18.5 10.2559 18.5 11.7842V18.5H13.9521V12.4746C13.9521 11.8119 13.9447 11.1699 13.7598 10.6895C13.6729 10.4639 13.5565 10.3018 13.4033 10.1934C13.2515 10.0859 13.0207 10 12.6514 10C12.2525 10 11.9757 10.0767 11.7803 10.1846C11.588 10.2908 11.4453 10.4437 11.3359 10.6436C11.1039 11.0679 11.0322 11.6846 11.0322 12.4219V18.5H6.53711V6.18457H10.874V6.90039C11.5691 6.30649 12.5503 5.86523 13.7637 5.86523ZM3.06543 0.5C4.47184 0.500005 5.57812 1.69898 5.57812 3.07227C5.57791 4.46238 4.45506 5.59082 3.06543 5.59082C1.63136 5.59082 0.500211 4.47085 0.5 3.07227C0.5 1.69036 1.61442 0.5 3.06543 0.5Z" stroke="black" stroke-opacity="0.2"/>
</svg>
